<svg width="200" height="200" viewBox="0 0 200 200" fill="none" xmlns="http://www.w3.org/2000/svg">
<path d="M77.0696 111.86L76.825 111.771L76.6123 111.921C75.6118 112.625 74.8231 113.589 74.3316 114.709C73.9006 115.691 73.7126 116.761 73.7806 117.827C66.4514 116.3 60.3144 114.926 55.9749 113.611C53.7377 112.934 51.9975 112.301 50.7722 111.689C50.1596 111.383 49.6926 111.09 49.3608 110.812C49.0261 110.531 48.8596 110.289 48.7947 110.093C48.017 107.736 47.8528 104.738 48.1217 101.48C48.3901 98.2284 49.0866 94.7523 50.0018 91.4576C50.9167 88.1633 52.047 85.0616 53.1772 82.5601C54.3164 80.0387 55.4294 78.1864 56.2908 77.3363C57.2993 76.3467 59.0136 75.429 61.192 74.624C63.3582 73.8235 65.933 73.1524 68.6154 72.6308L68.8968 72.5761L68.9918 72.3056C69.1985 71.7167 69.5588 71.194 70.035 70.7916C70.0652 70.7775 70.0962 70.7651 70.1277 70.7543C73.3284 70.109 76.6259 70.1099 79.8263 70.7571C79.9819 70.7988 80.1331 70.856 80.2774 70.9277L80.2943 70.9361L80.3118 70.9432C80.587 71.0551 80.8293 71.2351 81.0157 71.4664C81.2021 71.6978 81.3266 71.9727 81.3773 72.2654L81.4414 72.6348L81.8139 72.6768L81.87 72.18L81.8139 72.6768L81.8142 72.6769L81.8153 72.677L81.8204 72.6776L81.8412 72.68L81.9243 72.6898C81.9975 72.6986 82.1056 72.7119 82.2442 72.7296C82.5213 72.7651 82.9201 72.8185 83.4048 72.8901C84.3748 73.0334 85.686 73.2488 87.0541 73.5379C88.4249 73.8276 89.8396 74.1884 91.0221 74.6199C91.6132 74.8355 92.136 75.0652 92.5621 75.307C92.9929 75.5515 93.2972 75.793 93.4786 76.0211L93.4801 76.023C94.5636 77.3727 96.1182 80.4952 97.8249 85.2077C99.4796 89.7771 101.26 95.7926 102.882 103.024L90.98 103.5L90.9784 103.5C90.4788 103.522 90.1368 103.697 89.8505 103.942C89.7202 104.054 89.6019 104.18 89.497 104.292L89.4966 104.292L89.4898 104.299C89.3825 104.414 89.2804 104.522 89.1608 104.633C89.1139 104.676 89.0659 104.719 89.0175 104.763C88.8115 104.95 88.598 105.143 88.4334 105.355C88.2074 105.646 88.0621 105.978 88.0049 106.429L86.3919 116.511C86.3423 116.397 86.2892 116.286 86.2323 116.177C85.7766 115.301 85.0658 114.545 83.9832 114.221C82.1586 113.676 79.7613 112.83 77.0696 111.86Z" stroke="#311B92"/>
<path d="M90.73 140.42H56.66V182.29H106.96V143.7" stroke="#311B92" stroke-width="0.86" stroke-linejoin="round"/>
<path d="M55.79 113.85C53.64 128.65 57.86 135.74 66.34 139.35C67.8719 139.921 69.4723 140.287 71.1 140.44L90.74 140.36" stroke="#311B92" stroke-width="0.86" stroke-miterlimit="10"/>
<path d="M122.92 133C124.06 138.22 124.26 148.06 125.25 172.88" stroke="#311B92" stroke-width="0.86" stroke-miterlimit="10"/>
<path d="M122.68 106.42L119.54 124.05C119.433 124.753 119.093 125.399 118.574 125.885C118.055 126.371 117.388 126.669 116.68 126.73L88.42 128.51C87.9339 128.517 87.4523 128.416 87.0102 128.214C86.5681 128.012 86.1766 127.713 85.8644 127.341C85.5521 126.968 85.3268 126.531 85.205 126.06C85.0831 125.589 85.0678 125.097 85.16 124.62L88 106.25C88.0918 105.509 88.4439 104.825 88.9933 104.319C89.5428 103.814 90.254 103.52 91 103.49L119.54 102.49C120.02 102.501 120.491 102.617 120.921 102.83C121.35 103.043 121.728 103.347 122.028 103.722C122.327 104.096 122.541 104.532 122.653 104.998C122.766 105.465 122.775 105.95 122.68 106.42Z" stroke="#311B92" stroke-width="0.86" stroke-miterlimit="10"/>
<path d="M87.14 128.32L76 123.9C75.796 123.797 75.6307 123.631 75.5287 123.427C75.4267 123.222 75.3935 122.991 75.434 122.766C75.4744 122.541 75.5864 122.335 75.7533 122.179C75.9202 122.023 76.133 121.925 76.36 121.9L80 121.7" stroke="#311B92" stroke-width="0.86" stroke-miterlimit="10"/>
<path d="M55.53 123.38L75.28 123.42" stroke="#311B92" stroke-width="0.86" stroke-miterlimit="10"/>
<path d="M74 118C75.64 118.4 79.01 118.62 79.9 120.79C80.2 121.5 80.67 124.27 82.03 123.16C82.6 122.69 82.39 121.3 82.28 120.64C82.0905 119.498 81.7012 118.397 81.13 117.39" stroke="#311B92" stroke-width="0.86" stroke-miterlimit="10" stroke-linecap="round"/>
<path d="M83.49 116.63C84.22 117.95 85.43 123.87 82.39 123.03" stroke="#311B92" stroke-width="0.86" stroke-miterlimit="10" stroke-linecap="round"/>
<path d="M84.2 122.49C84.2 122.66 85.29 123.05 85.49 122.38" stroke="#311B92" stroke-width="0.86" stroke-miterlimit="10" stroke-linecap="round"/>
<path d="M94.1 102.58C93.73 100.19 91.43 92.58 90.1 87.37" stroke="#311B92" stroke-width="0.86" stroke-miterlimit="10" stroke-linecap="square"/>
<path d="M64.21 126.63C64.37 132.11 59.5 134.81 54.53 135.06" stroke="#311B92" stroke-width="0.86" stroke-miterlimit="10" stroke-linecap="round"/>
<path d="M70.68 48.72C70.99 46.45 71.4 43.09 72.98 41.33C78.05 35.67 83.92 47.2 84.87 50.91C85.75 54.38 80.87 62.17 79.46 62.73C77.35 63.57 74.34 61.58 73.38 59.61" stroke="#311B92" stroke-width="0.86" stroke-miterlimit="10" stroke-linecap="round"/>
<path d="M70 71C69.5617 65.2696 69.6086 58.8225 70.14 53.1" stroke="#311B92" stroke-width="0.86" stroke-miterlimit="10"/>
<path d="M78.89 62.63C79.45 65 80.01 69.36 81 71.5" stroke="#311B92" stroke-width="0.86" stroke-miterlimit="10"/>
<path d="M71.5 49.76C68.7 45.64 66.64 51.06 67.71 52.48C68.41 53.39 69.88 53.22 70.71 52.79" stroke="#311B92" stroke-width="0.86" stroke-miterlimit="10" stroke-linecap="round"/>
<path d="M81.44 43.91C81.78 43.91 89.81 42.31 88.68 40.11C87.39 37.59 71.93 45.54 71 46" stroke="#311B92" stroke-width="0.86" stroke-miterlimit="10"/>
<path d="M70.19 50.57C69.7636 50.9621 69.2092 51.186 68.63 51.2" stroke="#311B92" stroke-width="0.86" stroke-miterlimit="10" stroke-linecap="round"/>
<path d="M76.55 53.63C76.782 53.63 76.97 53.4419 76.97 53.21C76.97 52.978 76.782 52.79 76.55 52.79C76.3181 52.79 76.13 52.978 76.13 53.21C76.13 53.4419 76.3181 53.63 76.55 53.63Z" fill="#311B92"/>
<path d="M81.61 53.63C81.842 53.63 82.03 53.4419 82.03 53.21C82.03 52.978 81.842 52.79 81.61 52.79C81.378 52.79 81.19 52.978 81.19 53.21C81.19 53.4419 81.378 53.63 81.61 53.63Z" fill="#311B92"/>
<path d="M80 52C79.51 53 80.08 54.66 80.27 55.73C80.39 56.46 80.58 57.88 79.09 57.41" stroke="#311B92" stroke-width="0.86" stroke-miterlimit="10" stroke-linecap="round"/>
<path d="M125.05 172.55H116.05C114.227 162.376 111.817 152.315 108.83 142.42" stroke="#311B92" stroke-width="0.86" stroke-miterlimit="10"/>
<path d="M125.25 172.62C126.05 172.8 131.15 175.55 135.5 176.06C137.6 176.31 139.58 177.48 139.1 180.15L116.01 180.26" stroke="#311B92" stroke-width="0.86" stroke-linecap="round" stroke-linejoin="round"/>
<path d="M115.99 182.14H139.14V180.24H115.99V182.14Z" stroke="#311B92" stroke-width="0.86" stroke-linecap="round" stroke-linejoin="round"/>
<path d="M116 172.53V180.08" stroke="#311B92" stroke-width="0.86" stroke-miterlimit="10"/>
<path d="M90.3 155C90.72 156.29 91.82 161.36 94.06 164.63C95.14 166.22 95.59 168.24 93.88 169.63C93.743 169.743 93.5679 169.798 93.391 169.785C93.2141 169.772 93.049 169.692 92.93 169.56L78.54 153.17C78.4237 153.035 78.3648 152.86 78.376 152.683C78.3873 152.505 78.4677 152.339 78.6 152.22L83.53 148" stroke="#311B92" stroke-width="0.86" stroke-miterlimit="10"/>
<path d="M75 58.11C75.17 59.5 77.18 59.5 77.54 59.11" stroke="#311B92" stroke-width="0.86" stroke-miterlimit="10" stroke-linecap="round"/>
<path d="M62.47 87.73C60.34 94.45 57.68 102.94 58.22 103.99C58.76 105.04 69.12 108.99 77.22 111.9" stroke="#311B92" stroke-width="0.86" stroke-miterlimit="10" stroke-linecap="round"/>
<path d="M123.77 33.39C124.18 37.12 125.23 40.63 127.88 41.17C129.094 41.3124 130.323 41.0921 131.412 40.5369C132.502 39.9816 133.402 39.1163 134 38.05" stroke="#311B92" stroke-width="0.86" stroke-miterlimit="10" stroke-linecap="round"/>
<path d="M123.51 28.24C123.51 28.58 123.51 28.95 123.51 29.33" stroke="#311B92" stroke-width="0.86" stroke-miterlimit="10" stroke-linecap="round"/>
<path d="M135.84 28.36C138.26 24.44 140.06 29.6 139.12 30.95C138.797 31.2938 138.363 31.5125 137.895 31.5674C137.426 31.6223 136.954 31.5099 136.56 31.25" stroke="#311B92" stroke-width="0.86" stroke-miterlimit="10" stroke-linecap="round"/>
<path d="M137.84 28.49C137.692 29.0479 137.749 29.6402 138 30.16" stroke="#311B92" stroke-width="0.86" stroke-miterlimit="10" stroke-linecap="round"/>
<path d="M136.58 26.73C136.03 27.4436 135.277 27.9736 134.42 28.25C133.199 28.4185 131.955 28.2494 130.823 27.7611C129.692 27.2728 128.715 26.4839 128 25.48C127.54 26.48 127.29 27.3 126.34 27.73C125.785 27.983 125.179 28.1055 124.568 28.0882C123.958 28.0709 123.36 27.9141 122.82 27.63C121.99 21.24 129.31 14.11 134.38 19.77C135.95 21.53 136.38 24.89 136.68 27.16" stroke="#311B92" stroke-width="0.86" stroke-linecap="round" stroke-linejoin="round"/>
<path d="M136.34 24.26C137.93 23.06 138.22 25.92 137.83 26.79" stroke="#311B92" stroke-width="0.86" stroke-miterlimit="10" stroke-linecap="round"/>
<path d="M142.91 27.91C142.826 28.284 142.642 28.6281 142.377 28.9058C142.113 29.1835 141.779 29.3844 141.409 29.487C141.04 29.5896 140.65 29.5901 140.28 29.4885C139.91 29.3869 139.575 29.187 139.31 28.91" stroke="#311B92" stroke-width="0.86" stroke-linecap="round" stroke-linejoin="round"/>
<path d="M137.58 24.1C137.3 21.58 139.65 16.96 145.36 19.18C149.82 20.91 149.67 26.59 145.36 28.84C142.24 30.5 144.22 35.21 145.61 35.39" stroke="#311B92" stroke-width="0.86" stroke-linecap="round" stroke-linejoin="round"/>
<path d="M145.65 35.39C139.5 35.54 140.04 31.45 140.54 29.59" stroke="#311B92" stroke-width="0.86" stroke-linecap="round" stroke-linejoin="round"/>
<path d="M130.95 33.64C132.226 33.64 133.26 32.5834 133.26 31.28C133.26 29.9766 132.226 28.92 130.95 28.92C129.674 28.92 128.64 29.9766 128.64 31.28C128.64 32.5834 129.674 33.64 130.95 33.64Z" stroke="#311B92" stroke-width="0.86" stroke-linecap="round" stroke-linejoin="round"/>
<path d="M124.86 33.64C126.136 33.64 127.17 32.5834 127.17 31.28C127.17 29.9766 126.136 28.92 124.86 28.92C123.584 28.92 122.55 29.9766 122.55 31.28C122.55 32.5834 123.584 33.64 124.86 33.64Z" stroke="#311B92" stroke-width="0.86" stroke-linecap="round" stroke-linejoin="round"/>
<path d="M135.78 28.4C135.78 28.4 133.07 30.15 133.05 30.15" stroke="#311B92" stroke-width="0.86" stroke-miterlimit="10" stroke-linecap="round"/>
<path d="M128.62 31.32C128.62 31.129 128.544 30.9459 128.409 30.8109C128.274 30.6758 128.091 30.6 127.9 30.6C127.709 30.6 127.526 30.6758 127.391 30.8109C127.256 30.9459 127.18 31.129 127.18 31.32" stroke="#311B92" stroke-width="0.86" stroke-linecap="round" stroke-linejoin="round"/>
<path d="M131.75 36.84C131.701 37.0758 131.601 37.2978 131.456 37.4899C131.311 37.682 131.125 37.8393 130.911 37.9504C130.697 38.0615 130.462 38.1236 130.221 38.1322C129.98 38.1408 129.741 38.0956 129.52 38" stroke="#311B92" stroke-width="0.86" stroke-linecap="round" stroke-linejoin="round"/>
<path d="M127.31 31.1C127.284 31.5986 127.214 32.0939 127.1 32.58C127.04 32.97 126.49 35.17 126.43 35.5C126.37 35.83 127.61 35.92 127.91 35.97" stroke="#311B92" stroke-width="0.86" stroke-linecap="round" stroke-linejoin="round"/>
<path d="M145.85 64.5C143.07 61.5 133.37 52.93 132.97 52.64C132.353 52.3214 131.664 52.1664 130.97 52.19C128.972 52.0131 126.961 52.0466 124.97 52.29C123.97 52.41 123.73 53.78 124.89 53.86C125.67 53.86 126.53 53.8 127.32 53.8C128.368 53.7596 129.417 53.7897 130.46 53.89" stroke="#311B92" stroke-width="0.86" stroke-miterlimit="10" stroke-linecap="round"/>
<path d="M130.47 53.94C129.336 53.8046 128.186 53.9488 127.12 54.36C125.54 55.01 126.47 56.46 126.76 56.76" stroke="#311B92" stroke-width="0.86" stroke-miterlimit="10" stroke-linecap="round"/>
<path d="M130.38 55.5C129.59 55.44 126.57 55.26 126.74 57.19C126.79 57.71 127.94 59.71 129.34 59.37C129.428 59.3581 129.513 59.3271 129.588 59.279C129.663 59.2309 129.727 59.167 129.774 59.0916C129.822 59.0163 129.853 58.9315 129.864 58.8431C129.875 58.7547 129.867 58.6649 129.84 58.58C129.74 58.21 129.32 58.01 129.07 57.75C128.82 57.49 128.77 57.48 128.94 57.32C129.454 57.1767 129.996 57.1767 130.51 57.32C134.05 59.03 139.63 66.74 141.17 68.56" stroke="#311B92" stroke-width="0.86" stroke-miterlimit="10" stroke-linecap="round"/>
<path d="M113.07 54.64C113.259 54.6705 113.453 54.6337 113.618 54.5359C113.783 54.4382 113.909 54.2857 113.973 54.1049C114.037 53.9242 114.036 53.7267 113.97 53.5467C113.904 53.3667 113.776 53.2157 113.61 53.12C112.289 52.8597 110.953 52.6794 109.61 52.58C109.395 52.5777 109.188 52.4957 109.03 52.35C108.76 51.99 109.16 51.48 109.56 51.47" stroke="#311B92" stroke-width="0.86" stroke-miterlimit="10"/>
<path d="M109.19 50.17C108.518 50.1831 107.879 50.462 107.412 50.9456C106.945 51.4292 106.689 52.078 106.7 52.75C106.79 54.22 108.33 54.67 108.9 54.75C109.47 54.83 113.36 54.55 113.9 54.75C114.44 54.95 114.83 56.16 113.9 56.48C112.278 56.6383 110.648 56.6885 109.02 56.63C108.65 56.659 108.279 56.5918 107.943 56.435C107.607 56.2782 107.317 56.0371 107.102 55.7351C106.886 55.4332 106.753 55.0806 106.714 54.7117C106.675 54.3428 106.732 53.9702 106.88 53.63" stroke="#311B92" stroke-width="0.86" stroke-miterlimit="10"/>
<path d="M113.72 56.55C113.872 56.6092 114.003 56.7129 114.095 56.8476C114.187 56.9823 114.237 57.1418 114.237 57.305C114.237 57.4683 114.187 57.6277 114.095 57.7624C114.003 57.8972 113.872 58.0009 113.72 58.06C112.243 58.224 110.756 58.2941 109.27 58.27C108.12 58.27 106.71 57.6 107.27 55.65" stroke="#311B92" stroke-width="0.86" stroke-miterlimit="10"/>
<path d="M110 58.45L110.2 60.33C110.21 60.4869 110.251 60.6402 110.322 60.7809C110.392 60.9216 110.489 61.0469 110.608 61.1494C110.728 61.2519 110.866 61.3295 111.016 61.3777C111.166 61.4259 111.323 61.4437 111.48 61.43L115.7 61.15C115.998 61.0849 116.259 60.9069 116.429 60.6534C116.599 60.3998 116.664 60.0904 116.61 59.79C116.41 57.15 116.03 51.19 115.87 49.84C115.78 49.11 115.93 48.04 114.25 48.08C112.86 48.08 111.62 48.08 110.17 48.08C110.023 48.0779 109.877 48.1081 109.744 48.1687C109.61 48.2292 109.491 48.3185 109.395 48.4302C109.3 48.5419 109.23 48.6733 109.191 48.815C109.152 48.9567 109.145 49.1052 109.17 49.25C109.27 50.25 109.47 51.68 109.57 52.67" stroke="#311B92" stroke-width="0.86" stroke-miterlimit="10"/>
<path d="M150.17 57.81C150.47 53.56 150.91 48.3 147.42 46.4C142.06 43.49 137.42 47.79 137.42 47.79C137.42 42.2 137.74 37.12 137.24 31.54" stroke="#311B92" stroke-width="0.86" stroke-linejoin="round"/>
<path d="M116.2 54.82C116.9 51.28 118.13 44.96 124.4 44.96C126.22 44.96 128.27 45.8 128.7 47.33C129.471 45.2618 130.014 43.1158 130.32 40.93" stroke="#311B92" stroke-width="0.86" stroke-linejoin="round"/>
<path d="M119.87 73.23C122.21 65.78 122.4 55.76 122.38 55.17C122.38 55.17 118.3 71.99 114.61 71.49C110.92 70.99 111.83 62.54 111.83 61.35" stroke="#311B92" stroke-width="0.86" stroke-linejoin="round"/>
<path d="M136.14 55.38L142.39 55.47C142.39 55.47 142.39 57.28 142.39 61.12" stroke="#311B92" stroke-width="0.86" stroke-linejoin="round"/>
<path d="M122.38 55.17L126.27 55.23" stroke="#311B92" stroke-width="0.86" stroke-linejoin="round"/>
<path d="M137.73 22.44C136.94 22.04 136.14 21.67 135.31 21.34" stroke="#311B92" stroke-width="0.86" stroke-miterlimit="10"/>
<path d="M126.09 19.45H125.28C119.048 19.4472 113.003 21.58 108.152 25.4931C103.302 29.4061 99.9381 34.863 98.6223 40.9548C97.3066 47.0465 98.1179 53.4051 100.921 58.9713C103.724 64.5375 108.35 68.9752 114.028 71.5449C119.706 74.1146 126.092 74.6612 132.124 73.0937C138.156 71.5261 143.469 67.9391 147.177 62.9302C150.885 57.9213 152.765 51.7929 152.504 45.5662C152.242 39.3395 149.855 33.3904 145.74 28.71" stroke="#311B92" stroke-width="0.86" stroke-miterlimit="10"/>
<path d="M120.55 117.4C121.09 117.57 121.62 117.76 122.15 117.96C127.63 120.05 129.54 127.02 124.92 131.18C121.42 134.33 91.92 153.77 90.06 154.72L83.62 147.82C83.62 147.82 97.21 133.46 103 127.67" stroke="#311B92" stroke-width="0.86" stroke-miterlimit="10"/>
<path d="M122.92 55.14C122.79 54.89 122 46.81 126.18 45.23" stroke="#311B92" stroke-width="0.86" stroke-linejoin="round"/>
<path d="M126.33 51.88C126.2 51.1 126.66 47.48 128.33 47.21" stroke="#311B92" stroke-width="0.86" stroke-linejoin="round"/>
<path d="M142.13 55.5C142.26 55.26 143.05 47.17 138.86 45.59" stroke="#311B92" stroke-width="0.86" stroke-linejoin="round"/>
<path d="M139.13 55.51C139.34 54.24 139.2 48.28 137.4 47.73" stroke="#311B92" stroke-width="0.86" stroke-linejoin="round"/>
<path d="M80 52C80 52 81.55 51 82.44 52" stroke="#311B92" stroke-width="0.86" stroke-miterlimit="10" stroke-linecap="round"/>
<path d="M75.22 52C75.597 51.8045 76.0154 51.7025 76.44 51.7025C76.8646 51.7025 77.283 51.8045 77.66 52" stroke="#311B92" stroke-width="0.86" stroke-linecap="round" stroke-linejoin="round"/>
<path d="M76.7723 153.797L91.9692 171.26L93.4025 170.013L78.2056 152.549L76.7723 153.797Z" stroke="#311B92" stroke-width="0.86" stroke-linecap="round" stroke-linejoin="round"/>
</svg>
