<svg id="Layer_1" data-name="Layer 1" xmlns="http://www.w3.org/2000/svg" viewBox="74 16 64 64">
<defs>
<style>
.cls-1,.cls-2,.cls-3,.cls-4{fill:none;stroke:#F7D3B5;}.cls-1,.cls-2,.cls-4{stroke-linecap:round;}.cls-1{stroke-linejoin:round;}.cls-1,.cls-2,.cls-3{stroke-width:0.86px;}.cls-2,.cls-3,.cls-4{stroke-miterlimit:10;}.cls-4{stroke-width:1.23px;}
</style>
</defs>
<path class="cls-4" d="M102.44,34.06a.73.73,0,0,1-.14,1,.73.73,0,0,1-.88-1.16A.73.73,0,0,1,102.44,34.06Z"/>
<path class="cls-4" d="M95.92,33.55a.42.42,0,0,1-.12.58.43.43,0,0,1-.58-.12.42.42,0,0,1,.13-.58A.41.41,0,0,1,95.92,33.55Z"/>
<path class="cls-2" d="M98.83,35.93c0,.87-.13,2.55-1.49,1.75"/>
<path class="cls-2" d="M101.5,39.88c-1.41,2-2.92,3.59-3.57,3.78a2.35,2.35,0,0,1-.53.09c-2.09.17-4.51-1.91-5.2-3.81"/>
<path class="cls-2" d="M105.51,29.1a19.68,19.68,0,0,1,.95,3.48c.31,2-1.29,5.16-3.07,7.72"/>
<path class="cls-2" d="M90.6,28.83c.05-.19.18-.86.44-1.75.11-.38.24-.79.41-1.23s.31-.81.5-1.23c.9-1.91,2.32-3.82,4.51-4.15,1.49-.23,2.87.87,4.06,2.48a17.84,17.84,0,0,1,1.34,2.18v0a29.92,29.92,0,0,1,1.64,3.75"/>
<path class="cls-3" d="M87.71,49.49h0c.59-5.75.84-10.66,1.92-16.35"/>
<path class="cls-3" d="M97.4,43.75c-.09,2.24-.37,3.72.42,5.59"/>
<path class="cls-2" d="M91.31,30a5,5,0,0,0-.76-1.08c-2.12-2.25-4.11,2-3.28,3.4a2.24,2.24,0,0,0,2.33.78h0a2.64,2.64,0,0,0,.56-.17"/>
<path class="cls-3" d="M91.13,27.06l-.07,0h0c-1,.21-8.29,1.35-8-1,.13-1.18,4.25-1.49,8.78-1.46H92c3.45,0,7.63.35,9.92.53h0"/>
<path class="cls-4" d="M103.31,32.21a2.74,2.74,0,0,0-2.44-.3"/>
<path class="cls-2" d="M89.93,30.63a2.44,2.44,0,0,1-1.62.47"/>
<path class="cls-1" d="M105.52,29h.06a5.83,5.83,0,1,1-2.23,11.45h0a5.8,5.8,0,0,1-4-3.13,5.84,5.84,0,0,1,2.68-7.8,5.76,5.76,0,0,1,1.3-.46l.24-.05A5.73,5.73,0,0,1,105.52,29Z"/>
<path class="cls-2" d="M96.45,31.05A2.75,2.75,0,0,0,94,31"/>
<path class="cls-2" d="M95.17,40.23a1.77,1.77,0,0,0,2.71.32"/>
<path class="cls-1" d="M113.76,43.06c-.82-.71.09-2.75.89-3.88a3.49,3.49,0,0,1,.46-.55,1.69,1.69,0,0,1,2.54.14"/>
<path class="cls-1" d="M117.19,43.7a.5.5,0,0,0,0,.12c-.07.58-1.5.3-1.31-.85"/>
<path class="cls-1" d="M118.75,40.48a9.4,9.4,0,0,0-1.56,3.22"/>
<path class="cls-1" d="M116.17,40.5A2.78,2.78,0,0,1,117.48,39a.71.71,0,0,1,.18-.08c1-.36,2,.3,1.34,1.25l-.25.34"/>
<path class="cls-1" d="M120.5,42.12c-1.14-.43-1.35.89-1.53,1.73a2.25,2.25,0,0,0,0,.22.89.89,0,0,1-1.73-.37h0"/>
<path class="cls-1" d="M118.75,40.48h0c.58-.73,1.14-.95,1.89-.6a3.14,3.14,0,0,1,1.62,2.91"/>
<path class="cls-1" d="M113.37,40.94l-1.48-.76a.6.6,0,0,1-.27-.79l0-.08.37-.74,0,0a.59.59,0,0,1,.8-.26l1.65.82"/>
<path class="cls-1" d="M120.41,42.08l.09,0,1.73.75.82.35,1.13.56a.6.6,0,0,1,.27.79l0,.07-.4.8a.61.61,0,0,1-.8.27l-.52-.27-.35-.17-.71-.32-2.44-1.09"/>
<path class="cls-1" d="M112,38.57l0,.09-.3.59a.21.21,0,0,1,0,.06.4.4,0,0,1-.5.12l-1.54-.78a.41.41,0,0,1-.17-.54l.29-.58a.4.4,0,0,1,.54-.18l1.54.78A.39.39,0,0,1,112,38.57Z"/>
<path class="cls-1" d="M121.62,45a7,7,0,0,1-2.85.78,8,8,0,0,1-1.12.27c-1.5.26-4,.21-3.84-2.91a.22.22,0,0,0,0-.08,3.3,3.3,0,0,1,1.26-2.22,1.86,1.86,0,0,1,1.09-.35l.18,0a.76.76,0,0,1,.64.8c0,.43-.79.82-1.18,1.62a2,2,0,0,0-.2,1.06"/>
<path class="cls-1" d="M117.68,46.24c.11,8.86-.22,17.45-.4,17.5s-4.42-6.24-8.14-10.37c-2.07-2.31-9.53-1.79-9.53-1.79-.33-.83-.51-1.57-1.32-2a2,2,0,0,0-.48-.15,40.35,40.35,0,0,0-9.78,0,1.65,1.65,0,0,0-.32.07,2.19,2.19,0,0,0-1.51,2.2l-8.1,1.4c-18.24,8.1-25.27,29.16-19.55,46.09l.56-.14c1.55-.37,5.79-1.42,5.74-1.85C61.83,74.22,78,64.86,78,64.86v0c-1.51,9.86-5,33.3-5.1,40.56l37.52-.26h1.74c-.25-3.82-5.8-37.92-5.8-37.92s14.08,10,15.62,8.4c3.61-3.82,1.31-24.91.68-30.13"/>
</svg>