<svg width="320" height="320" viewBox="0 0 320 320" fill="none" xmlns="http://www.w3.org/2000/svg">
<path d="M156.096 54.496C155.92 54.7402 155.845 55.0429 155.887 55.341C155.928 55.6391 156.084 55.9096 156.32 56.096C156.567 56.2564 156.866 56.3173 157.157 56.2664C157.447 56.2156 157.708 56.0568 157.886 55.8219C158.064 55.587 158.147 55.2933 158.118 54.9999C158.088 54.7065 157.949 54.4351 157.728 54.24C157.604 54.1497 157.463 54.0846 157.314 54.0486C157.165 54.0125 157.011 54.0062 156.859 54.03C156.707 54.0538 156.562 54.1071 156.431 54.1871C156.3 54.2671 156.186 54.372 156.096 54.496Z" fill="black"/>
<path d="M166.528 53.6799C166.431 53.8286 166.397 54.0097 166.433 54.1836C166.469 54.3574 166.572 54.51 166.72 54.6079C166.87 54.701 167.05 54.7329 167.222 54.6972C167.395 54.6615 167.547 54.5608 167.648 54.4159C167.695 54.3414 167.728 54.2582 167.743 54.1712C167.758 54.0842 167.756 53.995 167.736 53.9088C167.717 53.8226 167.681 53.7411 167.63 53.6689C167.579 53.5967 167.515 53.5352 167.44 53.4879C167.368 53.4403 167.287 53.4074 167.201 53.3913C167.116 53.3751 167.029 53.376 166.944 53.3938C166.859 53.4117 166.779 53.4462 166.707 53.4953C166.636 53.5444 166.575 53.6071 166.528 53.6799Z" fill="black"/>
<path d="M121.904 283.664L87.12 271.6L88.112 268.72L122.896 280.784L121.904 283.664Z" stroke="#311B92" stroke-width="1.4" stroke-linecap="round" stroke-linejoin="round"/>
<path d="M167.328 198.912C167.247 198.992 167.173 199.077 167.104 199.168C164.976 201.84 149.168 222.976 148.656 224.064C144.928 232.064 128.352 266.272 126.912 269.456C125.84 269.12 115.056 265.616 115.024 265.28V265.152C114.832 261.328 119.824 233.648 124.624 207.552C124.912 205.952 135.376 183.552 143.408 168.336" stroke="#311B92" stroke-width="1.4" stroke-miterlimit="10" stroke-linecap="round"/>
<path d="M114.48 265.136C112.384 264.592 102.624 265.728 95.824 264.224C92.624 263.504 88.96 264.224 88.304 268.56L122.928 280.752" stroke="#311B92" stroke-width="1.4" stroke-linecap="round" stroke-linejoin="round"/>
<path d="M126.944 269.072L126.832 269.424L123.04 280.496" stroke="#311B92" stroke-width="1.4" stroke-miterlimit="10"/>
<path d="M214.144 270.832C211.536 269.104 187.168 242.736 176.912 228.896C173.392 224.096 170.144 211.712 167.104 199.168C165.28 191.648 163.52 184.08 161.824 178.128" stroke="#311B92" stroke-width="1.4" stroke-miterlimit="10" stroke-linecap="round"/>
<path d="M201.232 169.424C201.232 173.968 201.232 179.024 201.232 184C201.44 197.12 202.192 210.336 204.64 215.408C211.04 228.656 225.824 265.888 225.824 265.888" stroke="#311B92" stroke-width="1.4" stroke-miterlimit="10" stroke-linecap="round"/>
<path d="M189.504 175.136C191.2 181.008 195.904 183.648 201.296 184C203.683 184.143 206.077 183.895 208.384 183.264" stroke="#311B92" stroke-width="1.4" stroke-miterlimit="10" stroke-linecap="round"/>
<path d="M231.136 276.304L232.88 279.552L216.24 287.248L196.144 287.296L196.112 284.256H196.128L215.504 283.872L231.136 276.304Z" stroke="#311B92" stroke-width="1.4" stroke-linecap="round" stroke-linejoin="round"/>
<path d="M196.128 283.888C196.512 281.136 200.608 277.296 205.728 277.488C208.736 277.584 208.928 273.536 214.944 270.512L225.984 266L231.136 276.288" stroke="#311B92" stroke-width="1.4" stroke-linecap="round" stroke-linejoin="round"/>
<path d="M161.872 57.488C161.872 58.88 162.08 61.568 164.256 60.288" stroke="#311B92" stroke-width="1.4" stroke-miterlimit="10" stroke-linecap="round"/>
<path d="M157.6 63.808C159.856 67.008 162.272 69.552 163.312 69.856C163.588 69.9363 163.873 69.9846 164.16 70C167.504 70.272 171.376 66.944 172.48 63.904" stroke="#311B92" stroke-width="1.4" stroke-miterlimit="10" stroke-linecap="round"/>
<path d="M151.184 46.5601C150.508 48.3656 149.999 50.2294 149.664 52.1281C149.168 55.3281 151.728 60.3841 154.576 64.4801" stroke="#311B92" stroke-width="1.4" stroke-miterlimit="10" stroke-linecap="round"/>
<path d="M175.04 46.128C174.96 45.824 174.752 44.752 174.336 43.328C174.16 42.72 173.952 42.064 173.68 41.36C173.408 40.656 173.184 40.064 172.88 39.392C171.44 36.336 169.168 33.28 165.664 32.752C163.28 32.384 161.072 34.144 159.168 36.72C158.371 37.8298 157.654 38.9955 157.024 40.208C156.013 42.1457 155.137 44.1504 154.4 46.208" stroke="#311B92" stroke-width="1.4" stroke-miterlimit="10" stroke-linecap="round"/>
<path d="M179.664 79.184C178.72 69.9841 178.32 62.128 176.592 53.024" stroke="#311B92" stroke-width="1.4" stroke-miterlimit="10"/>
<path d="M164.16 70C164.304 73.584 164.752 75.952 163.488 78.944" stroke="#311B92" stroke-width="1.4" stroke-miterlimit="10"/>
<path d="M173.904 48.0001C174.231 47.3728 174.64 46.7918 175.12 46.2721C178.512 42.6721 181.696 49.4721 180.368 51.7121C179.936 52.2607 179.353 52.6711 178.69 52.8928C178.028 53.1145 177.315 53.1379 176.64 52.9601C176.332 52.9029 176.032 52.8117 175.744 52.6881" stroke="#311B92" stroke-width="1.4" stroke-miterlimit="10" stroke-linecap="round"/>
<path d="M174.192 43.296H174.304C175.904 43.632 187.568 45.456 187.104 41.696C186.896 39.808 180.304 39.312 173.056 39.36H172.8C167.28 39.36 160.592 39.92 156.928 40.208" stroke="#311B92" stroke-width="1.4" stroke-miterlimit="10"/>
<path d="M154.704 51.536C155.272 51.1574 155.921 50.9169 156.599 50.8335C157.277 50.7502 157.965 50.8264 158.608 51.056" stroke="#311B92" stroke-width="1.4" stroke-miterlimit="10" stroke-linecap="round"/>
<path d="M176.112 49.0081C176.859 49.5589 177.778 49.8255 178.704 49.7601" stroke="#311B92" stroke-width="1.4" stroke-miterlimit="10" stroke-linecap="round"/>
<path d="M151.168 46.4H151.072C149.869 46.6343 148.724 47.1032 147.702 47.78C146.681 48.4567 145.802 49.3281 145.117 50.3444C144.433 51.3606 143.954 52.5018 143.711 53.7028C143.467 54.9038 143.462 56.1411 143.696 57.344C143.93 58.5469 144.399 59.6919 145.076 60.7136C145.753 61.7353 146.624 62.6136 147.64 63.2986C148.657 63.9835 149.798 64.4615 150.999 64.7054C152.2 64.9493 153.437 64.9543 154.64 64.72C156.017 64.4254 157.309 63.8214 158.417 62.9538C159.526 62.0861 160.423 60.9776 161.04 59.712C162.123 57.4879 162.279 54.9251 161.476 52.5857C160.672 50.2462 158.973 48.3209 156.752 47.232C156.091 46.9042 155.392 46.6571 154.672 46.496L154.288 46.416C153.257 46.2324 152.201 46.227 151.168 46.4Z" stroke="#311B92" stroke-width="1.4" stroke-linecap="round" stroke-linejoin="round"/>
<path d="M165.68 49.68C166.283 49.3646 166.95 49.1931 167.631 49.1793C168.311 49.1654 168.985 49.3094 169.6 49.6" stroke="#311B92" stroke-width="1.4" stroke-miterlimit="10" stroke-linecap="round"/>
<path d="M167.728 64.368C167.502 64.7185 167.201 65.0147 166.847 65.2355C166.493 65.4562 166.095 65.596 165.681 65.6449C165.266 65.6938 164.846 65.6507 164.451 65.5184C164.055 65.3862 163.694 65.1682 163.392 64.88" stroke="#311B92" stroke-width="1.4" stroke-miterlimit="10" stroke-linecap="round"/>
<path d="M137.984 68.896C139.296 67.76 137.84 64.496 136.56 62.688C136.346 62.3702 136.099 62.0753 135.824 61.808C135.555 61.5323 135.229 61.3174 134.87 61.1777C134.511 61.038 134.126 60.9767 133.741 60.9979C133.356 61.0191 132.98 61.1223 132.639 61.3007C132.297 61.479 131.997 61.7284 131.76 62.032" stroke="#311B92" stroke-width="1.4" stroke-linecap="round" stroke-linejoin="round"/>
<path d="M132.496 69.92C132.504 69.9837 132.504 70.0482 132.496 70.112C132.608 71.04 134.896 70.592 134.592 68.752" stroke="#311B92" stroke-width="1.4" stroke-linecap="round" stroke-linejoin="round"/>
<path d="M130 64.7679C131.154 66.3096 132.002 68.0586 132.496 69.9199" stroke="#311B92" stroke-width="1.4" stroke-linecap="round" stroke-linejoin="round"/>
<path d="M134.128 64.8C133.75 63.7686 133.003 62.9137 132.032 62.4C131.942 62.3442 131.845 62.3011 131.744 62.272C130.144 61.696 128.544 62.752 129.6 64.272L130 64.816" stroke="#311B92" stroke-width="1.4" stroke-linecap="round" stroke-linejoin="round"/>
<path d="M127.2 67.392C129.024 66.704 129.36 68.816 129.648 70.16C129.654 70.2773 129.654 70.3948 129.648 70.512C129.759 70.8445 129.988 71.1246 130.292 71.2985C130.597 71.4725 130.954 71.5281 131.297 71.4548C131.64 71.3815 131.943 71.1844 132.15 70.9013C132.356 70.6181 132.451 70.2687 132.416 69.92" stroke="#311B92" stroke-width="1.4" stroke-linecap="round" stroke-linejoin="round"/>
<path d="M130 64.768C129.072 63.6 128.176 63.248 126.976 63.808C126.151 64.2629 125.47 64.9407 125.012 65.764C124.553 66.5873 124.336 67.5229 124.384 68.464" stroke="#311B92" stroke-width="1.4" stroke-linecap="round" stroke-linejoin="round"/>
<path d="M138.608 65.504L140.976 64.288C141.198 64.1746 141.367 63.9793 141.448 63.7434C141.529 63.5075 141.514 63.2495 141.408 63.024V62.896L140.816 61.712C140.76 61.5999 140.682 61.5001 140.587 61.4183C140.493 61.3366 140.382 61.2745 140.263 61.2358C140.144 61.1971 140.018 61.1825 139.894 61.1928C139.769 61.2031 139.647 61.2382 139.536 61.296L136.896 62.608" stroke="#311B92" stroke-width="1.4" stroke-linecap="round" stroke-linejoin="round"/>
<path d="M127.344 67.328H127.2L124.432 68.528L123.12 69.088L121.312 69.984C121.09 70.0974 120.921 70.2926 120.84 70.5285C120.759 70.7644 120.774 71.0225 120.88 71.248V71.36L121.52 72.64C121.636 72.8632 121.835 73.0327 122.073 73.1132C122.312 73.1937 122.572 73.179 122.8 73.072L123.632 72.64L124.192 72.368L125.328 71.856L129.232 70.112" stroke="#311B92" stroke-width="1.4" stroke-linecap="round" stroke-linejoin="round"/>
<path d="M140.8 61.712V61.856L141.28 62.8C141.275 62.8319 141.275 62.8642 141.28 62.896C141.37 63.017 141.499 63.1025 141.645 63.1376C141.791 63.1727 141.945 63.1552 142.08 63.088L144.544 61.84C144.692 61.7586 144.802 61.6234 144.853 61.4625C144.904 61.3016 144.89 61.1274 144.816 60.976L144.352 60.048C144.315 59.972 144.262 59.9042 144.199 59.8485C144.135 59.7928 144.061 59.7503 143.98 59.7235C143.9 59.6967 143.815 59.6862 143.73 59.6924C143.646 59.6987 143.564 59.7217 143.488 59.76L141.024 61.008C140.917 61.0862 140.837 61.1967 140.797 61.3233C140.756 61.45 140.758 61.5861 140.8 61.712Z" stroke="#311B92" stroke-width="1.4" stroke-linecap="round" stroke-linejoin="round"/>
<path d="M125.408 71.9999C126.822 72.7357 128.377 73.1611 129.968 73.2479C130.554 73.4348 131.153 73.5792 131.76 73.6799C134.16 74.0959 138.16 74.0159 137.904 69.0239C137.896 68.9816 137.896 68.9382 137.904 68.8959C137.821 68.1997 137.599 67.527 137.253 66.9171C136.907 66.3073 136.443 65.7725 135.888 65.3439C135.38 64.9786 134.77 64.7826 134.144 64.7839H133.856C133.556 64.8312 133.285 64.9887 133.096 65.2255C132.906 65.4623 132.812 65.7613 132.832 66.0639C132.832 66.7519 134.096 67.3759 134.72 68.6559C134.98 69.1813 135.091 69.768 135.04 70.3519" stroke="#311B92" stroke-width="1.4" stroke-linecap="round" stroke-linejoin="round"/>
<path d="M131.712 73.984C131.536 88.16 132.064 101.904 132.352 101.984C132.64 102.064 139.424 92 145.376 85.392C148.688 81.696 160.624 82.528 160.624 82.528C161.152 81.2 161.44 80.016 162.736 79.328C162.981 79.2161 163.239 79.1354 163.504 79.088C168.701 78.4536 173.955 78.4536 179.152 79.088C179.326 79.1083 179.497 79.1458 179.664 79.2C180.398 79.4387 181.033 79.9131 181.47 80.5496C181.907 81.1861 182.121 81.9491 182.08 82.72L195.04 84.96C224.224 97.92 235.472 131.616 226.32 158.704L225.424 158.48C222.944 157.888 216.16 156.208 216.24 155.52C221.072 118.752 195.2 103.776 195.2 103.776C197.616 119.552 203.2 157.056 203.36 168.672L143.328 168.256H140.544C140.944 162.144 149.824 107.584 149.824 107.584C149.824 107.584 127.296 123.584 124.832 121.024C119.056 114.912 122.736 81.168 123.744 72.816" stroke="#311B92" stroke-width="1.4" stroke-linecap="round" stroke-linejoin="round"/>
<path d="M215.904 163.776C213.488 170.864 216.992 177.392 220.384 175.264" stroke="#311B92" stroke-width="1.4" stroke-linecap="round" stroke-linejoin="round"/>
<path d="M218.608 165.12C218.089 166.769 217.964 168.516 218.242 170.222C218.52 171.928 219.193 173.545 220.208 174.944L220.432 175.264C221.008 176 222.032 177.168 223.072 176.448C223.406 176.178 223.633 175.798 223.712 175.375C223.791 174.953 223.717 174.517 223.504 174.144" stroke="#311B92" stroke-width="1.4" stroke-linecap="round" stroke-linejoin="round"/>
<path d="M221.872 165.92C221.056 168.48 222.88 174.448 224.48 175.248C226.368 176.304 227.344 174.24 226.416 172.464C223.312 166.496 227.456 161.376 225.424 158.464" stroke="#311B92" stroke-width="1.4" stroke-linecap="round" stroke-linejoin="round"/>
<path d="M215.04 168.464C214.697 168.491 214.353 168.437 214.034 168.308C213.716 168.179 213.431 167.978 213.203 167.721C212.975 167.464 212.81 167.157 212.721 166.825C212.631 166.493 212.62 166.145 212.688 165.808C213.141 162.369 214.676 159.164 217.072 156.656" stroke="#311B92" stroke-width="1.4" stroke-linecap="round" stroke-linejoin="round"/>
</svg>
