<svg width="382" height="382" viewBox="0 0 382 382" fill="none" xmlns="http://www.w3.org/2000/svg">
<path d="M208.476 354.706C219.785 354.706 228.952 345.898 228.952 335.033C228.952 324.168 219.785 315.36 208.476 315.36C197.168 315.36 188.001 324.168 188.001 335.033C188.001 345.898 197.168 354.706 208.476 354.706Z" stroke="#311B92" stroke-width="1.5" stroke-miterlimit="10" stroke-linecap="round"/>
<path d="M187.619 334.995C187.619 334.995 207.98 343.227 228.589 334.995" stroke="#311B92" stroke-width="1.5" stroke-miterlimit="10"/>
<path d="M208.648 315.322V354.687" stroke="#311B92" stroke-width="1.5" stroke-miterlimit="10"/>
<path d="M223.031 321.338C214.875 323.669 212.316 328.978 213.003 338.395" stroke="#311B92" stroke-width="1.5" stroke-miterlimit="10"/>
<path d="M222.572 348.919C216.136 348.384 213.347 344.755 213.022 338.395" stroke="#311B92" stroke-width="1.5" stroke-miterlimit="10"/>
<path d="M193.388 321.338C201.562 323.669 204.103 328.978 203.434 338.395" stroke="#311B92" stroke-width="1.5" stroke-miterlimit="10"/>
<path d="M193.865 348.919C200.302 348.384 203.09 344.755 203.415 338.395" stroke="#311B92" stroke-width="1.5" stroke-miterlimit="10"/>
<path d="M125.984 354.114H170.2V350.485H125.984V354.114Z" stroke="#311B92" stroke-width="1.5" stroke-linecap="round" stroke-linejoin="round"/>
<path d="M267.094 217.74C268.47 260.314 281.438 301.933 293.032 337.02C293.032 337.02 281.897 341.986 273.569 342.979C269.577 343.437 265.776 345.672 266.712 350.771L267.324 354.591H310.986C310.986 354.591 312.056 257.182 311.273 201.792" stroke="#311B92" stroke-width="1.5" stroke-miterlimit="10"/>
<path d="M237.489 201.811C226.182 206.528 203.109 217.969 200.665 224.731C195.469 239.304 213.271 297.693 213.271 297.693C209.852 298.609 201.944 302.62 193.617 303.594C189.606 304.072 185.824 306.288 186.76 311.406L187.295 315.379L229.315 315.188C229.315 315.188 226.526 249.121 231.034 245.282C239.552 238.005 254.622 233.478 267.763 233.822" stroke="#311B92" stroke-width="1.5" stroke-miterlimit="10"/>
<path d="M71.9879 176.026C71.4913 186.874 70.8037 195.126 70.4217 202.345L145.408 202.212C145.16 188.345 137.902 138.57 134.865 119.776" stroke="#311B92" stroke-width="1.5" stroke-linecap="round" stroke-linejoin="round"/>
<path d="M68.6454 334.002C73.6687 329.895 111.983 263.083 120.311 217.836" stroke="#311B92" stroke-width="1.5" stroke-miterlimit="10" stroke-linecap="round"/>
<path d="M72.58 202.46C70.288 246.123 55.39 328.52 55.39 328.52" stroke="#311B92" stroke-width="1.5" stroke-miterlimit="10" stroke-linecap="round"/>
<path d="M110.78 250.554C114.371 270.036 124.914 329.8 125.926 336.179C125.926 336.179 140.901 336.485 141.073 336.179C143.594 330.678 145.332 272.328 143.785 202.918" stroke="#311B92" stroke-width="1.5" stroke-miterlimit="10" stroke-linecap="round"/>
<path d="M85.5107 212.984C83.6007 223.279 73.3822 226.354 64.0041 224.769" stroke="#311B92" stroke-width="1.5" stroke-miterlimit="10" stroke-linecap="round"/>
<path d="M141.627 336.16C144.205 336.351 154.863 341.432 163.171 342.406C167.182 342.864 170.964 345.099 170.047 350.218L125.945 350.409" stroke="#311B92" stroke-width="1.5" stroke-linecap="round" stroke-linejoin="round"/>
<path d="M125.926 335.702V350.122" stroke="#311B92" stroke-width="1.5" stroke-miterlimit="10"/>
<path d="M47.0051 344.87L66.9646 353.847L90.9542 353.656V350.027L67.805 349.816L49.0488 340.973L47.0051 344.87Z" stroke="#311B92" stroke-width="1.5" stroke-linecap="round" stroke-linejoin="round"/>
<path d="M90.9351 349.53C90.4385 346.264 85.5107 341.718 79.4751 342.005C75.8843 342.176 75.6551 337.325 68.378 333.792L55.1608 328.558L49.1252 340.916" stroke="#311B92" stroke-width="1.5" stroke-linecap="round" stroke-linejoin="round"/>
<path d="M176.885 87.7072C172.195 99.0302 166.188 109.762 158.988 119.681C158.988 119.681 140.595 106.005 134.158 102.491C128.428 99.3773 119.069 99.7593 119.069 99.7593C118.926 98.7997 118.525 97.8969 117.91 97.1469C117.295 96.3969 116.487 95.8277 115.574 95.5C109.156 93.7428 97.4291 95.0034 95.9775 95.9011C94.75 96.8721 93.9045 98.2452 93.59 99.7784C93.59 99.7784 77.9662 102.089 73.4013 105.852C69.3521 109.176 52.8497 130.682 49.9847 136.565C47.7309 141.245 45.267 145.37 45.5917 150.604C46.6422 166.819 75.8652 180.858 93.0361 179.731C95.4045 179.578 94.8315 169.723 94.8315 169.723C88.6049 168.214 63.1637 156.353 66.7545 150.336C73.5177 141.21 81.1978 132.8 89.6745 125.239" stroke="#311B92" stroke-width="1.5" stroke-linejoin="round"/>
<path d="M97.5819 54.3968C98.174 50.0611 98.9571 43.6435 101.975 40.2819C111.64 29.4713 122.87 51.4936 124.666 58.5797C126.366 65.1883 117.026 80.0863 114.352 81.1559C110.303 82.7603 104.553 78.9594 102.739 75.1967" stroke="#311B92" stroke-width="1.5" stroke-miterlimit="10" stroke-linecap="round"/>
<path d="M96.2067 95.6337C96.2067 84.3074 95.5955 74.0507 96.5505 62.7626" stroke="#311B92" stroke-width="1.5" stroke-miterlimit="10"/>
<path d="M113.244 80.9649C113.798 85.8354 114.428 91.5081 116.319 95.6146" stroke="#311B92" stroke-width="1.5" stroke-miterlimit="10"/>
<path d="M99.129 56.3832C93.8001 48.514 89.8464 58.8662 91.9092 61.5784C93.2271 63.3165 96.0539 62.9918 97.6392 62.1705" stroke="#311B92" stroke-width="1.5" stroke-miterlimit="10" stroke-linecap="round"/>
<path d="M118.133 45.2097C118.783 45.2097 134.101 42.1537 131.943 37.9517C129.498 33.1385 99.9503 48.323 98.1358 49.1252" stroke="#311B92" stroke-width="1.5" stroke-miterlimit="10"/>
<path d="M109.5 57.3C108.717 57.0613 107.888 57.0113 107.081 57.154C106.275 57.2967 105.513 57.6282 104.859 58.1213" stroke="#311B92" stroke-width="1.5" stroke-miterlimit="10" stroke-linecap="round"/>
<path d="M96.646 57.9303C95.8278 58.731 94.7346 59.1888 93.59 59.21" stroke="#311B92" stroke-width="1.5" stroke-miterlimit="10" stroke-linecap="round"/>
<path d="M108.03 62.3424C108.473 62.3424 108.832 61.9833 108.832 61.5402C108.832 61.0972 108.473 60.738 108.03 60.738C107.587 60.738 107.227 61.0972 107.227 61.5402C107.227 61.9833 107.587 62.3424 108.03 62.3424Z" fill="#311B92"/>
<path d="M118.535 62.075C118.978 62.075 119.337 61.7158 119.337 61.2728C119.337 60.8298 118.978 60.4706 118.535 60.4706C118.092 60.4706 117.732 60.8298 117.732 61.2728C117.732 61.7158 118.092 62.075 118.535 62.075Z" fill="#311B92"/>
<path d="M119.872 57.5101C118.611 56.9371 115.746 57.109 115.23 58.3505C114.428 60.2605 115.65 64.5007 116.166 66.8882C116.51 68.5117 117.102 71.6823 114.256 70.8228" stroke="#311B92" stroke-width="1.5" stroke-miterlimit="10" stroke-linecap="round"/>
<path d="M185.709 79.6661C185.518 75.8461 185.499 73.0957 185.576 69.6959C185.576 68.5308 186.187 63.7558 183.933 64.2333C181.679 64.7108 182.29 75.1776 182.329 76.8011" stroke="#311B92" stroke-width="1.5" stroke-linecap="round" stroke-linejoin="round"/>
<path d="M182.94 65.131C182.73 63.7176 182.157 62.9727 180.877 62.9918C178.05 62.9918 178.738 72.5418 178.681 76.8966" stroke="#311B92" stroke-width="1.5" stroke-linecap="round" stroke-linejoin="round"/>
<path d="M185.709 88.2802C187.963 88.5476 189.243 79.6852 189.357 76.9539C189.357 76.0562 189.51 74.3945 188.383 73.8406C187.619 73.4777 186.97 74.1844 186.703 74.7192C186.351 75.5401 186.126 76.4094 186.034 77.2977C185.881 78.4437 185.671 79.8189 185.537 80.9649" stroke="#311B92" stroke-width="1.5" stroke-linecap="round" stroke-linejoin="round"/>
<path d="M179.12 65.0355C178.91 63.8513 177.687 64.0423 176.904 64.749C174.65 66.7736 175.262 81.0222 176.79 87.669C176.79 87.669 179.616 86.0455 185.633 88.1847" stroke="#311B92" stroke-width="1.5" stroke-linecap="round" stroke-linejoin="round"/>
<path d="M136.546 130.319C137.138 130.606 155.932 141.111 163.954 141.779C171.04 142.352 185.786 88.2993 185.786 88.2993" stroke="#311B92" stroke-width="1.5" stroke-miterlimit="10"/>
<path d="M110.092 155.665H100.39C100.187 155.688 99.9914 155.752 99.8143 155.853C99.6372 155.954 99.4824 156.09 99.3592 156.252C99.236 156.415 99.1471 156.601 99.0976 156.798C99.0482 156.996 99.0394 157.202 99.0717 157.403L99.6638 168.615" stroke="#311B92" stroke-width="1.5" stroke-miterlimit="10"/>
<path d="M113.549 167.851L114.122 157.403C114.152 157.202 114.141 156.997 114.091 156.801C114.04 156.604 113.951 156.419 113.828 156.257C113.706 156.096 113.552 155.96 113.376 155.858C113.2 155.756 113.006 155.691 112.805 155.665H112.06" stroke="#311B92" stroke-width="1.5" stroke-miterlimit="10"/>
<path d="M100.466 181.775L100.676 185.595C100.664 185.966 100.794 186.328 101.038 186.608C101.283 186.888 101.624 187.065 101.994 187.104H111.258C111.629 187.07 111.973 186.894 112.218 186.613C112.464 186.332 112.592 185.967 112.575 185.595L112.805 181.45" stroke="#311B92" stroke-width="1.5" stroke-miterlimit="10"/>
<path d="M99.6447 168.386C100.733 171.461 106.368 170.945 108.813 170.525C109.71 170.372 114.008 168.615 113.569 167.431" stroke="#311B92" stroke-width="1.5" stroke-miterlimit="10"/>
<path d="M113.626 167.411C113.912 167.393 114.198 167.433 114.468 167.528C114.738 167.622 114.987 167.77 115.198 167.962C115.41 168.155 115.582 168.388 115.702 168.647C115.822 168.907 115.889 169.188 115.899 169.474C115.746 172.377 110.436 174.994 104.649 174.096" stroke="#311B92" stroke-width="1.5" stroke-miterlimit="10" stroke-linecap="round"/>
<path d="M113.721 172.511C113.974 172.474 114.232 172.487 114.479 172.551C114.726 172.614 114.958 172.727 115.161 172.882C115.364 173.037 115.534 173.231 115.661 173.453C115.787 173.674 115.868 173.919 115.899 174.173C115.746 176.713 110.627 179.062 104.84 178.279" stroke="#311B92" stroke-width="1.5" stroke-miterlimit="10" stroke-linecap="round"/>
<path d="M113.798 176.885C114.034 176.808 114.285 176.787 114.531 176.823C114.777 176.86 115.012 176.953 115.215 177.096C115.419 177.239 115.587 177.427 115.706 177.645C115.824 177.864 115.89 178.107 115.899 178.356C115.899 180.705 107.208 184.812 93.972 179.636" stroke="#311B92" stroke-width="1.5" stroke-miterlimit="10" stroke-linecap="round"/>
<path d="M94.6787 169.799C94.3158 168.901 96.5887 166.418 99.3582 166.208" stroke="#311B92" stroke-width="1.5" stroke-miterlimit="10" stroke-linecap="round"/>
<path d="M287.226 170.162C287.646 169.283 285.029 166.781 281.935 166.59" stroke="#311B92" stroke-width="1.5" stroke-miterlimit="10" stroke-linecap="round"/>
<path d="M99.5301 163.821C103.98 162.044 104.687 167.278 110.589 166.743C111.261 166.63 111.896 166.358 112.441 165.95C112.986 165.541 113.425 165.007 113.721 164.394" stroke="#311B92" stroke-width="1.5" stroke-miterlimit="10" stroke-linecap="round"/>
<path d="M110.837 166.552L113.626 147.548L122.45 147.509L122.641 145.007H111.391L108.221 166.323" stroke="#311B92" stroke-width="1.5" stroke-linecap="round" stroke-linejoin="round"/>
<path d="M310.738 175.968C311.464 187.829 312.132 198.716 312.323 202.059L237.337 201.925C237.604 188.059 243.181 148.808 246.237 130.014" stroke="#311B92" stroke-width="1.5" stroke-linecap="round" stroke-linejoin="round"/>
<path d="M308.675 140.614C308.847 144.148 309.248 150.527 309.726 158.549" stroke="#311B92" stroke-width="1.5" stroke-linecap="round" stroke-linejoin="round"/>
<path d="M282.527 44.7322C282.022 43.0866 281.168 41.5689 280.025 40.2819C273.455 32.9284 265.49 36.3664 260.925 44.5412" stroke="#311B92" stroke-width="1.5" stroke-miterlimit="10" stroke-linecap="round"/>
<path d="M284.418 54.3968C284.418 53.7092 284.303 53.4609 284.189 52.716" stroke="#311B92" stroke-width="1.5" stroke-miterlimit="10" stroke-linecap="round"/>
<path d="M288.066 95.2135C288.066 83.8872 286.404 74.0507 285.449 62.7435" stroke="#311B92" stroke-width="1.5" stroke-miterlimit="10"/>
<path d="M283.062 56.1349C288.448 47.6163 292.402 58.8089 290.339 61.7312C289.619 62.505 288.647 62.9971 287.597 63.1196C286.547 63.2421 285.488 62.9869 284.609 62.3997" stroke="#311B92" stroke-width="1.5" stroke-miterlimit="10" stroke-linecap="round"/>
<path d="M272.5 57.3C273.283 57.0613 274.112 57.0113 274.919 57.154C275.725 57.2967 276.487 57.6282 277.141 58.1213" fill="#311B92"/>
<path d="M272.5 57.3C273.283 57.0613 274.112 57.0113 274.919 57.154C275.725 57.2967 276.487 57.6282 277.141 58.1213" stroke="#311B92" stroke-width="1.5" stroke-miterlimit="10" stroke-linecap="round"/>
<path d="M285.354 57.9303C286.172 58.731 287.265 59.1888 288.41 59.21Z" fill="#311B92"/>
<path d="M285.354 57.9303C286.172 58.731 287.265 59.1888 288.41 59.21" stroke="#311B92" stroke-width="1.5" stroke-miterlimit="10" stroke-linecap="round"/>
<path d="M273.97 62.3424C274.413 62.3424 274.773 61.9833 274.773 61.5402C274.773 61.0972 274.413 60.738 273.97 60.738C273.527 60.738 273.168 61.0972 273.168 61.5402C273.168 61.9833 273.527 62.3424 273.97 62.3424Z" fill="#311B92"/>
<path d="M264.038 62.075C264.481 62.075 264.841 61.7158 264.841 61.2728C264.841 60.8298 264.481 60.4706 264.038 60.4706C263.595 60.4706 263.236 60.8298 263.236 61.2728C263.236 61.7158 263.595 62.075 264.038 62.075Z" fill="#311B92"/>
<path d="M262.701 57.5101C263.962 56.9371 266.808 57.109 267.324 58.3505C268.145 60.2605 265.013 66.4871 264.478 68.8746C264.134 70.4981 266.827 70.3071 268.47 70.1161" stroke="#311B92" stroke-width="1.5" stroke-miterlimit="10" stroke-linecap="round"/>
<path d="M274.677 72.2362C273.245 77.0303 267.037 77.0876 265.815 73.8979" stroke="#311B92" stroke-width="1.5" stroke-miterlimit="10" stroke-linecap="round"/>
<path d="M196.348 78.0235C196.348 73.9552 196.348 72.9811 196.214 69.5049C196.214 68.3016 195.584 63.4311 197.952 63.9086C200.607 64.4434 199.862 75.1012 199.71 76.7629" stroke="#311B92" stroke-width="1.5" stroke-linecap="round" stroke-linejoin="round"/>
<path d="M198.946 64.558C198.943 64.283 199 64.0107 199.112 63.7596C199.224 63.5085 199.389 63.2847 199.596 63.1033C199.803 62.922 200.046 62.7874 200.31 62.7088C200.573 62.6302 200.851 62.6095 201.123 62.648C204.255 62.648 203.587 71.9497 203.472 76.5528" stroke="#311B92" stroke-width="1.5" stroke-linecap="round" stroke-linejoin="round"/>
<path d="M253.266 98.0976C255.176 125.449 245.454 130.319 245.454 130.319C244.862 130.606 226.068 141.111 218.046 141.779C210.96 142.352 196.348 88.6813 196.348 88.6813" stroke="#311B92" stroke-width="1.5" stroke-linecap="round" stroke-linejoin="round"/>
<path d="M230.442 245.912C230.442 245.912 216.919 236.362 200.741 224.158" stroke="#311B92" stroke-width="1.5" stroke-miterlimit="10"/>
<path d="M311.846 275.747C311.846 275.747 295.439 275.747 275.326 275.307" stroke="#311B92" stroke-width="1.5" stroke-miterlimit="10"/>
<path d="M99.6065 160.898C98.6432 160.898 97.7015 160.613 96.9006 160.078C96.0996 159.542 95.4754 158.782 95.1067 157.892C94.7381 157.002 94.6417 156.022 94.8296 155.078C95.0175 154.133 95.4814 153.265 96.1625 152.584C96.8437 151.903 97.7115 151.439 98.6563 151.251C99.6011 151.063 100.58 151.16 101.47 151.528C102.36 151.897 103.121 152.521 103.656 153.322C104.191 154.123 104.477 155.065 104.477 156.028" stroke="#311B92" stroke-width="1.5" stroke-linejoin="round"/>
<path d="M287.207 170.334C293.433 168.825 318.932 156.391 315.341 150.336C312.228 145.657 294.942 126.308 300.901 98.7661" stroke="#311B92" stroke-width="1.5" stroke-linecap="round" stroke-linejoin="round"/>
<path d="M204.981 87.4016C209.721 98.8234 215.771 109.656 223.012 119.681C223.012 119.681 243.028 102.72 249.37 99.0908C254.259 96.3022 264.86 95.9775 264.86 95.9775C265.452 98.8998 270.704 116.529 274.066 117.541C276.893 118.382 286.882 99.7402 288.066 94.8124C288.066 94.8124 302.277 97.6201 306.861 101.383C310.891 104.687 329.246 130.682 332.111 136.565C334.365 141.244 336.828 145.37 336.504 150.603C335.453 166.819 306.058 180.896 288.888 179.769" stroke="#311B92" stroke-width="1.5" stroke-linecap="round" stroke-linejoin="round"/>
<path d="M207.159 93.8001L198.22 95.0607" stroke="#311B92" stroke-width="1.5" stroke-linecap="round" stroke-linejoin="round"/>
<path d="M289.002 324.031H310.738" stroke="#311B92" stroke-width="1.5" stroke-linecap="round" stroke-linejoin="round"/>
<path d="M209.107 283.062H228.092" stroke="#311B92" stroke-width="1.5" stroke-linecap="round" stroke-linejoin="round"/>
<path d="M267.075 352.758C268.985 345.366 277.026 351.421 289.117 349.931C296.012 349.091 302.945 344.469 310.585 344.984" stroke="#311B92" stroke-width="1.5" stroke-miterlimit="10"/>
<path d="M187.18 314.692C188.937 307.319 196.73 313.374 208.324 311.884C214.932 311.024 221.579 306.421 228.913 306.918" stroke="#311B92" stroke-width="1.5" stroke-miterlimit="10"/>
<path d="M281.419 182.023V183.818C281.419 184.832 281.017 185.803 280.301 186.52C279.584 187.236 278.613 187.638 277.599 187.638H271.487C270.474 187.638 269.503 187.236 268.786 186.52C268.07 185.803 267.667 184.832 267.667 183.818V181.087" stroke="#311B92" stroke-width="1.5" stroke-miterlimit="10" stroke-linecap="round"/>
<path d="M267.686 168.08V153.373C267.686 152.36 268.089 151.388 268.805 150.672C269.522 149.955 270.493 149.553 271.506 149.553H277.619C278.632 149.553 279.603 149.955 280.32 150.672C281.036 151.388 281.439 152.36 281.439 153.373V168.653" stroke="#311B92" stroke-width="1.5" stroke-miterlimit="10" stroke-linecap="round"/>
<path d="M280.082 149.458C280.225 149.457 280.365 149.425 280.493 149.365C280.622 149.304 280.736 149.216 280.827 149.107C280.918 148.998 280.984 148.87 281.02 148.733C281.057 148.595 281.062 148.451 281.037 148.312C280.763 146.792 279.963 145.417 278.778 144.427C277.593 143.436 276.097 142.894 274.553 142.894C273.009 142.894 271.513 143.436 270.328 144.427C269.143 145.417 268.343 146.792 268.069 148.312C268.043 148.451 268.049 148.595 268.086 148.733C268.122 148.87 268.188 148.998 268.279 149.107C268.37 149.216 268.484 149.304 268.612 149.365C268.741 149.425 268.881 149.457 269.024 149.458H280.082Z" stroke="#311B92" stroke-width="1.5" stroke-miterlimit="10" stroke-linecap="round"/>
<path d="M196.424 81.2323C196.441 79.9572 196.39 78.6821 196.272 77.4123C196.159 76.4864 195.901 75.5841 195.508 74.7383C195.221 74.1844 194.495 73.4395 193.598 73.8215C192.318 74.4136 192.432 76.1326 192.471 77.0876C192.471 79.2841 193.23 84.3137 196 88" stroke="#311B92" stroke-width="1.5" stroke-linecap="round" stroke-linejoin="round"/>
<path d="M205 87C206.585 80.2386 207.617 66.3725 205.249 64.2524C204.427 63.5457 202.918 63.4693 203.052 64.558" stroke="#311B92" stroke-width="1.5" stroke-linecap="round" stroke-linejoin="round"/>
<path d="M267.133 173.008C266.881 172.906 266.607 172.873 266.339 172.912C266.071 172.951 265.818 173.061 265.606 173.23C265.394 173.399 265.231 173.621 265.133 173.874C265.036 174.127 265.007 174.402 265.051 174.67C265.223 177.363 270.475 179.674 276.511 178.91" stroke="#311B92" stroke-width="1.5" stroke-miterlimit="10" stroke-linecap="round"/>
<path d="M267.4 177.63C265.49 176.694 264.936 178.031 265.127 178.795C265.796 181.297 272.781 184.966 288.5 180" stroke="#311B92" stroke-width="1.5" stroke-miterlimit="10" stroke-linecap="round"/>
<path d="M280.961 168.882C279.586 171.346 275.384 171.06 272.5 170.639C270.766 170.055 269.14 169.191 267.686 168.08C267.49 167.954 267.269 167.873 267.037 167.843C266.806 167.813 266.571 167.835 266.349 167.908C265.936 168.024 265.574 168.275 265.321 168.621C265.068 168.968 264.939 169.389 264.955 169.818C265.108 172.74 270.685 175.739 276.683 174.822" stroke="#311B92" stroke-width="1.5" stroke-miterlimit="10" stroke-linecap="round"/>
<path d="M257.697 52.6778C257.279 54.6945 257.075 56.7494 257.086 58.8089C257.086 65.6085 264.726 80.2582 267.438 81.3278C271.487 82.9322 277.236 79.1313 279.07 75.3686" stroke="#311B92" stroke-width="1.5" stroke-miterlimit="10" stroke-linecap="round"/>
<path d="M268.642 81.4806C267.496 85.7399 264.822 94.2776 264.822 95.309" stroke="#311B92" stroke-width="1.5" stroke-miterlimit="10"/>
<path d="M283.979 52.3531C283.979 52.3531 276.511 51.4554 271.144 51.4554C266.12 51.4554 258.614 52.3531 258.614 52.3531C258.26 52.3583 257.908 52.2921 257.58 52.1583C257.252 52.0246 256.954 51.8261 256.705 51.5747C256.455 51.3233 256.259 51.0242 256.127 50.6952C255.996 50.3663 255.932 50.0142 255.94 49.66V47.559C255.94 46.8599 256.218 46.1895 256.712 45.6952C257.206 45.2009 257.877 44.9232 258.576 44.9232C258.576 44.9232 266.98 44.1019 271.144 44.1019C275.689 44.1019 283.941 44.9232 283.941 44.9232C284.64 44.9232 285.31 45.2009 285.804 45.6952C286.299 46.1895 286.576 46.8599 286.576 47.559V49.66C286.584 50.0077 286.523 50.3535 286.396 50.6775C286.269 51.0014 286.08 51.2971 285.838 51.5474C285.597 51.7978 285.308 51.9978 284.989 52.1361C284.67 52.2744 284.327 52.3481 283.979 52.3531Z" stroke="#311B92" stroke-width="1.5" stroke-linecap="round" stroke-linejoin="round"/>
<path d="M261.67 96.4741C261.67 96.4741 267.858 120.788 273.856 120.731C280.426 120.731 286.92 106.272 290.759 96.0348" stroke="#311B92" stroke-width="1.5" stroke-miterlimit="10" stroke-linecap="round"/>
<path d="M297.693 97.41C295.758 105.772 295.751 114.463 297.67 122.828C299.589 131.193 303.385 139.013 308.771 145.695" stroke="#311B92" stroke-width="1.5" stroke-miterlimit="10" stroke-linecap="round"/>
<path d="M255.94 97.1617C255.94 97.1617 259.263 124.742 245.855 134.368" stroke="#311B92" stroke-width="1.5" stroke-miterlimit="10" stroke-linecap="round"/>
<path d="M296.394 202.154V275.613" stroke="#311B92" stroke-width="1.5" stroke-miterlimit="10" stroke-linecap="round"/>
<path d="M301.035 202.154V275.613" stroke="#311B92" stroke-width="1.5" stroke-miterlimit="10" stroke-linecap="round"/>
<path d="M92.9406 179.731C95.309 179.578 94.736 169.723 94.736 169.723C88.5094 168.214 63.0682 156.353 66.659 150.336C73.4222 141.21 81.1023 132.8 89.579 125.239" stroke="#311B92" stroke-width="1.5" stroke-linejoin="round"/>
<path d="M111.831 77.8134C108.011 77.6797 106.425 71.8542 107.38 72.6373C108.763 73.3724 110.298 73.7742 111.863 73.8107C113.428 73.8471 114.98 73.5173 116.395 72.8474C117.446 72.2744 114.925 77.9471 111.831 77.8134Z" stroke="#311B92" stroke-width="1.5" stroke-miterlimit="10"/>
<path d="M174.173 93.2462L157.842 101.115L164.566 84.5366L150.718 77.3741L169.474 68.7218L153.468 53.7092L174.689 57.3L167.431 34.38L185.27 50.5004L191.554 27.2939L197.838 50.5004L211.437 41.2751L208.419 57.3L232.141 53.3654L213.633 68.7218L227.061 76.4764L211.857 81.175L225.265 101.115L208.381 92.9406" stroke="#311B92" stroke-width="1.5" stroke-linecap="round" stroke-linejoin="round"/>
<path d="M201.448 105.279L200.034 108.908L191.115 97.6583L179.674 114.18L179.75 108.908" stroke="#311B92" stroke-width="1.5" stroke-linecap="round" stroke-linejoin="round"/>
<path d="M275.116 139.583H273.799C273.176 139.583 272.672 140.083 272.672 140.7C272.672 141.317 273.176 141.818 273.799 141.818H275.116C275.739 141.818 276.243 141.317 276.243 140.7C276.243 140.083 275.739 139.583 275.116 139.583Z" fill="#311B92"/>
<path d="M274.844 142.156H274.109V141.784H274.844V142.156Z" fill="#311B92" stroke="#311B92" stroke-width="1.5"/>
</svg>
